<svg width="40" height="40" viewBox="0 0 40 40" fill="none" xmlns="http://www.w3.org/2000/svg">
<rect width="40" height="40" rx="20" fill="#F8FAFC"/>
<path d="M11.0249 17.0001C11.0232 15.8146 11.2561 14.6405 11.7102 13.5453C12.1642 12.4502 12.8305 11.4557 13.6705 10.6192C14.5105 9.78263 15.5078 9.12054 16.6048 8.67105C17.7018 8.22156 18.8769 7.99354 20.0624 8.00014C25.0124 8.03764 28.9749 12.1501 28.9749 17.1126V18.0001C28.9749 22.4751 29.9124 25.0751 30.7374 26.5001C30.825 26.6519 30.8712 26.824 30.8714 26.9993C30.8715 27.1745 30.8256 27.3467 30.7383 27.4986C30.6509 27.6505 30.5252 27.7768 30.3737 27.8648C30.2221 27.9529 30.0501 27.9995 29.8749 28.0001H10.1249C9.94966 27.9995 9.77766 27.9529 9.62613 27.8648C9.4746 27.7768 9.34886 27.6505 9.26151 27.4986C9.17416 27.3467 9.12826 27.1745 9.12842 26.9993C9.12857 26.824 9.17478 26.6519 9.2624 26.5001C10.0874 25.0751 11.0249 22.4751 11.0249 18.0001V17.0001Z" stroke="#35353F" stroke-width="2" stroke-linecap="round" stroke-linejoin="round"/>
<path d="M16 28V29C16 30.0609 16.4214 31.0783 17.1716 31.8284C17.9217 32.5786 18.9391 33 20 33C21.0609 33 22.0783 32.5786 22.8284 31.8284C23.5786 31.0783 24 30.0609 24 29V28" stroke="#35353F" stroke-width="2" stroke-linecap="round" stroke-linejoin="round"/>
</svg>
